<?xml version="1.0" encoding="UTF-8" standalone="no"?> <svg id="Line" xmlns="http://www.w3.org/2000/svg" viewBox="0 0 64 64"><path d="M20,45H44a8,8,0,0,1,8,8v8a0,0,0,0,1,0,0H12a0,0,0,0,1,0,0V53A8,8,0,0,1,20,45Z" style="fill:#4a80aa"/><polygon points="38 48 32 53 26 48 26 33 38 33 38 48" style="fill:#ffcbbe"/><path d="M17,20h2a0,0,0,0,1,0,0v7a0,0,0,0,1,0,0H17a2,2,0,0,1-2-2V22A2,2,0,0,1,17,20Z" style="fill:#ffcbbe"/><path d="M47,20h2a0,0,0,0,1,0,0v7a0,0,0,0,1,0,0H47a2,2,0,0,1-2-2V22A2,2,0,0,1,47,20Z" transform="translate(94 47) rotate(-180)" style="fill:#ffcbbe"/><rect x="19" y="7" width="26" height="34" rx="13" style="fill:#ffddce"/><path d="M45,17v3H42l-2-6H24l-2,6H19V17c0-2.58-1.29-8.98,0-11,1.22-1.91,4.98.52,7-.54C27.79,4.53,29.84,3,32,3c1.4,0,2.74,1.22,4,1.63,1.98.64,3.75-.26,5.19,1.18C43.54,8.16,45,13.41,45,17Z" style="fill:#3e3d42"/><path d="M24,45H20a8,8,0,0,0-8,8v8H24Z" style="fill:#365e7d"/><path d="M44,45H40V61H52V53A8,8,0,0,0,44,45Z" style="fill:#365e7d"/><polygon points="22 45 20 51 22 51 20 55 22 61 27 61 26 45 22 45" style="fill:#e1ecfd"/><polygon points="42 45 44 51 42 51 44 55 42 61 37 61 38 45 42 45" style="fill:#e1ecfd"/><path d="M26,25a1,1,0,0,0,1-1V22a1,1,0,0,0-2,0v2A1,1,0,0,0,26,25Z" style="fill:#3e3d42"/><path d="M38,25a1,1,0,0,0,1-1V22a1,1,0,0,0-2,0v2A1,1,0,0,0,38,25Z" style="fill:#3e3d42"/><path d="M45,18H19a1,1,0,0,0,0,2h2v5a3,3,0,0,0,3,3h4a3,3,0,0,0,3-3V20h2v5a3,3,0,0,0,3,3h4a3,3,0,0,0,3-3V20h2a1,1,0,0,0,0-2ZM29,25a1,1,0,0,1-1,1H24a1,1,0,0,1-1-1V20h6Zm12,0a1,1,0,0,1-1,1H36a1,1,0,0,1-1-1V20h6Z" style="fill:#57565c"/></svg>